<svg width="1200" height="1200" viewBox="0 0 1200 1200" fill="none" xmlns="http://www.w3.org/2000/svg">
<path fill-rule="evenodd" clip-rule="evenodd" d="M721 206H441C406.758 206 379 233.758 379 268V461H358V268C358 222.16 395.16 185 441 185H721C766.84 185 804 222.16 804 268V384.641H783V268C783 233.758 755.242 206 721 206ZM358 830V932C358 977.84 395.16 1015 441 1015H721C766.84 1015 804 977.84 804 932V792.641H783V932C783 966.242 755.242 994 721 994H441C406.758 994 379 966.242 379 932V830H358Z" fill="white"/>
<path d="M443.001 529.36L509.5 380.36L828.313 588.937L1068 560.5L900 702.5L443.001 529.36Z" fill="#CC0000"/>
<path d="M313 514.359L204 614.359L356.5 556.859L313 514.359Z" fill="#CC0000"/>
<path d="M1026 255L865.56 689.339L900 702.5L609 807.359L312.639 514.69L204 614.359L288 490.359L288.064 490.421L288.002 490.36L612.483 558.632L780.001 429.5L1026 255Z" fill="white"/>
<path fill-rule="evenodd" clip-rule="evenodd" d="M411 749.78C411 761.5 401.505 771 389.793 771H156.207C144.495 771 135 761.5 135 749.78L135 677.018C135 665.299 144.495 655.798 156.207 655.798H389.793C401.505 655.798 411 665.299 411 677.018V749.78ZM239.699 719.699C237.892 721.506 235.727 722.409 233.205 722.409C231.5 722.409 229.966 722 228.602 721.182C227.205 720.33 226.097 719.205 225.278 717.807C224.426 716.409 224 714.875 224 713.205C224 710.682 224.903 708.517 226.71 706.71C228.517 704.903 230.682 704 233.205 704C235.727 704 237.892 704.903 239.699 706.71C241.506 708.517 242.409 710.682 242.409 713.205C242.409 715.727 241.506 717.892 239.699 719.699ZM272.861 722.409C275.384 722.409 277.548 721.506 279.355 719.699C281.162 717.892 282.065 715.727 282.065 713.205C282.065 710.682 281.162 708.517 279.355 706.71C277.548 704.903 275.384 704 272.861 704C270.338 704 268.173 704.903 266.367 706.71C264.56 708.517 263.656 710.682 263.656 713.205C263.656 714.875 264.082 716.409 264.935 717.807C265.753 719.205 266.861 720.33 268.259 721.182C269.622 722 271.156 722.409 272.861 722.409ZM312.517 722.409C315.04 722.409 317.205 721.506 319.011 719.699C320.818 717.892 321.722 715.727 321.722 713.205C321.722 710.682 320.818 708.517 319.011 706.71C317.205 704.903 315.04 704 312.517 704C309.994 704 307.83 704.903 306.023 706.71C304.216 708.517 303.313 710.682 303.313 713.205C303.313 714.875 303.739 716.409 304.591 717.807C305.409 719.205 306.517 720.33 307.915 721.182C309.279 722 310.813 722.409 312.517 722.409Z" fill="white"/>
</svg>
